<mxfile host="app.diagrams.net" modified="2024-04-02T23:24:57.132Z" agent="Mozilla/5.0 (Windows NT 10.0; Win64; x64) AppleWebKit/537.36 (KHTML, like Gecko) Chrome/123.0.0.0 Safari/537.36" etag="OAkybsdkCaRE3nmMEE9r" version="23.1.1" type="device">
  <diagram name="Page-1" id="YvDVts8D4PaRZpL1mZuc">
    <mxGraphModel dx="1258" dy="663" grid="1" gridSize="10" guides="1" tooltips="1" connect="1" arrows="1" fold="1" page="1" pageScale="1" pageWidth="850" pageHeight="1100" math="0" shadow="0">
      <root>
        <mxCell id="0" />
        <mxCell id="1" parent="0" />
        <mxCell id="SJMh7dNNGu0fETIsVEzd-5" value="2. get terms from msg" style="edgeStyle=orthogonalEdgeStyle;rounded=0;orthogonalLoop=1;jettySize=auto;html=1;entryX=-0.005;entryY=0.173;entryDx=0;entryDy=0;exitX=1;exitY=0.171;exitDx=0;exitDy=0;exitPerimeter=0;entryPerimeter=0;startArrow=classic;startFill=1;endArrow=none;endFill=0;" edge="1" parent="1" source="SJMh7dNNGu0fETIsVEzd-1" target="SJMh7dNNGu0fETIsVEzd-2">
          <mxGeometry relative="1" as="geometry" />
        </mxCell>
        <mxCell id="SJMh7dNNGu0fETIsVEzd-12" value="3. terms" style="edgeStyle=orthogonalEdgeStyle;rounded=0;orthogonalLoop=1;jettySize=auto;html=1;exitX=1;exitY=0.25;exitDx=0;exitDy=0;entryX=0;entryY=0.25;entryDx=0;entryDy=0;" edge="1" parent="1" source="SJMh7dNNGu0fETIsVEzd-1" target="SJMh7dNNGu0fETIsVEzd-2">
          <mxGeometry relative="1" as="geometry" />
        </mxCell>
        <mxCell id="SJMh7dNNGu0fETIsVEzd-16" value="7. conclusions" style="edgeStyle=orthogonalEdgeStyle;rounded=0;orthogonalLoop=1;jettySize=auto;html=1;exitX=0.997;exitY=0.649;exitDx=0;exitDy=0;entryX=-0.003;entryY=0.649;entryDx=0;entryDy=0;exitPerimeter=0;entryPerimeter=0;" edge="1" parent="1" source="SJMh7dNNGu0fETIsVEzd-1" target="SJMh7dNNGu0fETIsVEzd-2">
          <mxGeometry relative="1" as="geometry" />
        </mxCell>
        <mxCell id="SJMh7dNNGu0fETIsVEzd-1" value="LLM" style="rounded=0;whiteSpace=wrap;html=1;" vertex="1" parent="1">
          <mxGeometry x="100" y="310" width="120" height="290" as="geometry" />
        </mxCell>
        <mxCell id="SJMh7dNNGu0fETIsVEzd-13" value="4. get docs from terms" style="edgeStyle=orthogonalEdgeStyle;rounded=0;orthogonalLoop=1;jettySize=auto;html=1;entryX=0.001;entryY=0.312;entryDx=0;entryDy=0;entryPerimeter=0;exitX=0.997;exitY=0.311;exitDx=0;exitDy=0;exitPerimeter=0;" edge="1" parent="1" source="SJMh7dNNGu0fETIsVEzd-2" target="SJMh7dNNGu0fETIsVEzd-3">
          <mxGeometry relative="1" as="geometry">
            <mxPoint x="490" y="400" as="sourcePoint" />
          </mxGeometry>
        </mxCell>
        <mxCell id="SJMh7dNNGu0fETIsVEzd-15" value="6. get conclusions from&lt;br&gt;message and terms" style="edgeStyle=orthogonalEdgeStyle;rounded=0;orthogonalLoop=1;jettySize=auto;html=1;" edge="1" parent="1" source="SJMh7dNNGu0fETIsVEzd-2" target="SJMh7dNNGu0fETIsVEzd-1">
          <mxGeometry relative="1" as="geometry" />
        </mxCell>
        <mxCell id="SJMh7dNNGu0fETIsVEzd-2" value="Middleware" style="rounded=0;whiteSpace=wrap;html=1;" vertex="1" parent="1">
          <mxGeometry x="365" y="310" width="120" height="290" as="geometry" />
        </mxCell>
        <mxCell id="SJMh7dNNGu0fETIsVEzd-14" value="5. docs" style="edgeStyle=orthogonalEdgeStyle;rounded=0;orthogonalLoop=1;jettySize=auto;html=1;entryX=0.997;entryY=0.372;entryDx=0;entryDy=0;entryPerimeter=0;exitX=-0.001;exitY=0.37;exitDx=0;exitDy=0;exitPerimeter=0;" edge="1" parent="1" source="SJMh7dNNGu0fETIsVEzd-3" target="SJMh7dNNGu0fETIsVEzd-2">
          <mxGeometry relative="1" as="geometry" />
        </mxCell>
        <mxCell id="SJMh7dNNGu0fETIsVEzd-3" value="Search Engine&lt;br&gt;(Open Search)" style="rounded=0;whiteSpace=wrap;html=1;" vertex="1" parent="1">
          <mxGeometry x="630" y="310" width="120" height="290" as="geometry" />
        </mxCell>
        <mxCell id="SJMh7dNNGu0fETIsVEzd-9" value="1. input msg" style="edgeStyle=orthogonalEdgeStyle;rounded=0;orthogonalLoop=1;jettySize=auto;html=1;entryX=0.25;entryY=0;entryDx=0;entryDy=0;exitX=0.31;exitY=0.8;exitDx=0;exitDy=0;exitPerimeter=0;" edge="1" parent="1" source="SJMh7dNNGu0fETIsVEzd-10" target="SJMh7dNNGu0fETIsVEzd-2">
          <mxGeometry relative="1" as="geometry">
            <mxPoint x="425" y="230" as="sourcePoint" />
            <Array as="points">
              <mxPoint x="380" y="222" />
              <mxPoint x="380" y="290" />
              <mxPoint x="395" y="290" />
            </Array>
          </mxGeometry>
        </mxCell>
        <mxCell id="SJMh7dNNGu0fETIsVEzd-10" value="Client" style="ellipse;shape=cloud;whiteSpace=wrap;html=1;" vertex="1" parent="1">
          <mxGeometry x="290" y="150" width="270" height="90" as="geometry" />
        </mxCell>
        <mxCell id="SJMh7dNNGu0fETIsVEzd-17" value="8. output&lt;br&gt;(msg, terms, conclusions)" style="edgeStyle=orthogonalEdgeStyle;rounded=0;orthogonalLoop=1;jettySize=auto;html=1;entryX=0.703;entryY=0.91;entryDx=0;entryDy=0;entryPerimeter=0;exitX=0.75;exitY=0;exitDx=0;exitDy=0;" edge="1" parent="1" source="SJMh7dNNGu0fETIsVEzd-2" target="SJMh7dNNGu0fETIsVEzd-10">
          <mxGeometry relative="1" as="geometry">
            <Array as="points">
              <mxPoint x="455" y="300" />
              <mxPoint x="480" y="300" />
              <mxPoint x="480" y="232" />
            </Array>
          </mxGeometry>
        </mxCell>
      </root>
    </mxGraphModel>
  </diagram>
</mxfile>
